<?xml version="1.0" encoding="UTF-8"?>
<!DOCTYPE svg PUBLIC "-//W3C//DTD SVG 1.1//EN" "http://www.w3.org/Graphics/SVG/1.1/DTD/svg11.dtd">
<!-- Creator: CorelDRAW 2020 (64-Bit) -->
<svg xmlns="http://www.w3.org/2000/svg" xml:space="preserve" width="700mm" height="150mm" version="1.1" style="shape-rendering:geometricPrecision; text-rendering:geometricPrecision; image-rendering:optimizeQuality; fill-rule:evenodd; clip-rule:evenodd"
viewBox="0 0 70000 15000"
 xmlns:xlink="http://www.w3.org/1999/xlink"
 xmlns:xodm="http://www.corel.com/coreldraw/odm/2003"
 xmlns:svg="http://www.w3.org/2000/svg">
 <defs>
  <style type="text/css">
   <![CDATA[
    .fil3 {fill:black}
    .fil0 {fill:#0074BC}
    .fil2 {fill:#B6C838}
    .fil1 {fill:#FDFDFD}
   ]]>
  </style>
 </defs>
 <g id="Слой_x0020_1">
  <metadata id="CorelCorpID_0Corel-Layer"/>
  <g id="_1845964259392">
   <path class="fil0" d="M20234.04 9668.66l0 -1455.37 277.65 -3.3 1.13 559.64c239.35,18.48 323.3,-39.37 477.11,117.06 222.07,225.87 138.64,721.02 -150.79,776.82 -113.53,21.89 -476.53,12.27 -605.1,5.15zm-5549.53 -1297.15l4.74 -161.04 276.89 1.01 3.2 164.67c365.64,1.82 549.68,185.11 553.76,552.86 4.26,382.52 -185.99,561.63 -556.96,563.06l0 176.59 -277.66 3.64 0 -172.33c-195.44,-30.11 -279.49,-6.69 -404.54,-139.07 -103.39,-109.45 -149.73,-217.31 -152.49,-410.61 -2.59,-181.52 42.12,-316.65 139.42,-423.69 118.17,-129.98 196.86,-133.67 413.64,-155.09zm-5877 1300.28l-277.5 -1.71 0.03 -1455.35 277.62 -4.98 1.02 559.14 358.9 4.05 6.92 -562.49 275.85 1.04 -0.01 1457.17 -276.42 3.63 -0.36 -672.69 -364.1 -3.05 -1.95 675.24zm8543.59 -1457.06l964.78 -4.28 -4.25 223.65 -340.16 -0.19 0.2 1228.42 -276.38 9.46 -0.48 -1232.67 -343.75 -7.47 0.04 -216.92zm-5639.72 555.64l458.47 3.16 0 221.76 -457.26 1.01 -1.13 448.73 503.01 3.66 0 223.1 -780.44 -0.47 0 -1458.03 780.44 -3.04 0 223.66 -496.6 0.54 -6.49 335.92zm-3816.56 1379.87l13936.85 0 0 -2400 -13936.85 0 0 2400z"/>
   <path class="fil0" d="M1494.81 6676.56c0,528.45 128.97,1040.4 294.97,1410.29 165.38,368.52 417.74,746.15 689.22,1016.04 157.42,156.5 272.54,257.52 450.35,391.76 87.43,66.02 157.14,109.17 253.47,167.57 52.26,31.68 79.46,43.46 136.57,73.97 1293.15,690.87 2948.17,506.26 3959.25,-475.8 52.28,-50.78 216.17,-153.72 216.17,-225.94l0 -2357.89 -2484.21 0c-48.51,0 -63.16,14.65 -63.16,63.15l0 968.43c0,190.68 178.38,-210.53 610.53,-210.53l189.47 0c313.18,0 609.07,243.62 730.99,447.96 158.46,265.59 193.79,627.15 48.49,920.99 -484.6,980 -2497.97,1345.71 -3305.88,-253.07 -601.33,-1189.98 239.2,-2779.04 1747.45,-2779.04l0 -2610.53c-1395.08,0 -2583.71,786.8 -3172.05,2049.01 -164.31,352.51 -301.63,895.29 -301.63,1403.63z"/>
   <path class="fil0" d="M19179.04 6676.56l673.69 0 37.23 -2058.3 320.66 2058.3 547.37 0c24.27,-291.67 336.84,-2004.52 336.84,-2168.43l21.05 2168.43 673.69 0 0 -3473.69 -884.22 0c0,155.95 -66.94,414.86 -96.38,577.31l-256.09 1449.17c-19.05,97.35 -47.52,208.39 -47.52,310.36l-42.11 0c0,-122.62 -24.65,-188.13 -42.25,-294.59l-309.9 -1732.2c-16.8,-96.63 -45.88,-221.45 -47.85,-310.05l-884.21 0 0 3473.69z"/>
   <path class="fil0" d="M5936.91 5055.5c0,-288.96 151.13,-968.46 294.74,-1073.68 262.35,495.81 317.2,1204.69 168.67,1768.67 -50.49,191.76 -152.94,395.42 -168.67,462.91 -89.82,-65.82 -176.8,-371.22 -211.01,-504.78 -43.19,-168.55 -83.73,-444.65 -83.73,-653.12zm-378.94 -673.68l-21.06 0c0,-170.57 -63.15,-536.47 -63.15,-863.16 0,-633.5 50.03,-1134.19 239.48,-1697.36 70.46,-209.43 375.27,-1069.95 518.41,-1165.8 25.24,108.33 87.75,186.69 136.62,284.44 384.44,768.87 600.22,1557.83 600.22,2473.46 0,179.36 -16.71,278.47 -20.85,442.3 -3.77,149.19 -42.3,282.28 -42.3,441.91l-21.06 0c0,-740.52 -197.99,-1675.51 -519.02,-2344.14 -42.24,-87.98 -113,-198.98 -133.61,-287.44l-288.61 574.55c-81.1,206.85 -144.25,409.88 -207.77,634.32 -128.52,454.12 -177.3,933.04 -177.3,1506.92zm-336.84 -1073.69c0,778.03 231.06,1846.46 596.35,2519.45 63.77,117.49 122.54,219.6 191.71,334.6 62.03,103.13 133.64,244.37 222.46,303.85 604.79,-903.16 823.72,-1610.07 962.81,-2679.3l26.67 -499.65c0,-522.5 -153.62,-1312.49 -307.75,-1776.46 -104.98,-316.01 -424.57,-987.94 -642.22,-1294.63 -33.47,-47.16 -17.25,-48.57 -81.61,-65.75 -50.12,187.69 -968.42,1296.43 -968.42,3157.89z"/>
   <polygon class="fil0" points="13221.13,6676.56 13894.82,6676.56 13894.82,3644.97 14105.35,3644.97 14105.35,6676.56 14779.03,6676.56 14779.03,3202.87 13221.13,3202.87 "/>
   <path class="fil0" d="M17873.77 6129.19l0 -2400.01c0,-114.22 189.47,-114.22 189.47,0l0 2400.01c0,114.23 -189.47,114.23 -189.47,0zm-673.68 -2442.11l0 2484.21c0,614.89 583.07,505.27 1052.63,505.27 192.25,0 330.68,-77.19 409.55,-200.98 77.13,-121.04 95.71,-325.06 95.71,-514.81l0 -2084.21c0,-156.71 -26.12,-369.9 -83.93,-463.44 -62.05,-100.4 -196.14,-210.25 -358.17,-210.25l-694.74 0c-251.2,0 -421.05,228.92 -421.05,484.21z"/>
   <path class="fil0" d="M10063.24 3644.97l42.1 0c0,306.15 27.13,563.81 42.07,863.21l63.19 842.06 -252.63 0c0,-227.18 41.89,-510.51 42.67,-631.02l20.45 -421.65c9.04,-181.2 42.15,-418.9 42.15,-652.6zm-863.16 3031.59l673.68 0c0,-315.9 38.41,-628.88 63.16,-926.32l294.74 0 63.15 926.32 673.69 0 -335.01 -3243.93c-7.66,-91.55 -21.3,-158.6 -22.88,-229.76l-1052.64 0c-29.8,127.92 -30.22,269.77 -45.64,417.51l-137.83 1314.81c-36.79,290.27 -57.67,586.53 -86.65,860.72l-64.9 650.89c-7.65,91.55 -21.29,158.6 -22.87,229.76z"/>
   <path class="fil0" d="M11242.18 3708.14l0 610.52 673.69 0c0,-248.95 -53.27,-673.69 84.21,-673.69 55.22,0 105.26,15.65 105.26,84.21l0 800.01c0,303.59 -526.31,27.53 -526.31,210.53l0 336.84c646.78,0 526.31,-90.21 526.31,1052.63 0,102 -189.47,143.19 -189.47,-42.11l0 -631.58 -673.69 0c0,364.61 -61.23,877.19 131.54,1089.52 164.04,180.68 631.06,131.54 921.1,131.54 622.51,0 505.26,-695.99 505.26,-1305.27 0,-149.32 -38.53,-292.1 -110.21,-373.99 -30.85,-35.25 -106.4,-79.11 -157.13,-95.51 -79.34,-25.65 -119.47,-3.76 -195.81,-56.82 552.88,0 463.15,-495.21 463.15,-989.47 0,-783.84 -423.31,-652.63 -1094.74,-652.63 -298.16,0 -463.16,211.64 -463.16,505.27z"/>
   <path class="fil0" d="M15979.03 5097.61l-84.21 0 0 -1452.64c74.96,0 189.48,-18.01 189.48,147.38l0 1157.89c0,70.95 -37.21,147.37 -105.27,147.37zm-778.94 1578.95l694.73 0 0 -1178.95c254.21,0 548.29,36.68 722.05,-120.06 66.36,-59.86 141.11,-224.77 141.11,-343.1l0 -1347.37c0,-255.29 -169.85,-484.21 -421.05,-484.21l-1136.84 0 0 3473.69z"/>
   <polygon class="fil0" points="7915.86,6676.56 8589.55,6676.56 8589.55,3644.97 9200.08,3644.97 9200.08,3202.87 7915.86,3202.87 "/>
   <path class="fil1" d="M14967.7 8593.85c214.7,2.33 270.48,120.89 271.97,335.63 1.61,234.35 -47.66,341.93 -273.66,344.92l1.69 -680.55zm-279.22 671.81c-215.83,34.28 -276.84,-138.61 -273.86,-336.7 3.02,-200.25 66.4,-351.43 273.7,-329.29l0.16 665.99zm-3.97 -894.15c-216.78,21.42 -295.47,25.11 -413.64,155.09 -97.3,107.04 -142.01,242.17 -139.42,423.69 2.76,193.3 49.1,301.16 152.49,410.61 125.05,132.38 209.1,108.96 404.54,139.07l0 172.33 277.66 -3.64 0 -176.59c370.97,-1.43 561.22,-180.54 556.96,-563.06 -4.08,-367.75 -188.12,-551.04 -553.76,-552.86l-3.2 -164.67 -276.89 -1.01 -4.74 161.04z"/>
   <polygon class="fil1" points="8809.46,8996.55 9173.56,8999.6 9173.92,9672.29 9450.34,9668.66 9450.35,8211.49 9174.5,8210.45 9167.58,8772.94 8808.68,8768.89 8807.66,8209.75 8530.04,8214.73 8530.01,9670.08 8807.51,9671.79 "/>
   <path class="fil1" d="M20514.69 9001.69c202.67,-20.69 309.54,7.98 317,221.83 7.96,228.31 -104.59,267.72 -320.31,231.61l3.31 -453.44zm-280.65 666.97c128.57,7.12 491.57,16.74 605.1,-5.15 289.43,-55.8 372.86,-550.95 150.79,-776.82 -153.81,-156.43 -237.76,-98.58 -477.11,-117.06l-1.13 -559.64 -277.65 3.3 0 1455.37z"/>
   <polygon class="fil1" points="11717.87,8434.45 12214.47,8433.91 12214.47,8210.25 11434.03,8213.29 11434.03,9671.32 12214.47,9671.79 12214.47,9448.69 11711.46,9445.03 11712.59,8996.3 12169.85,8995.29 12169.85,8773.53 11711.38,8770.37 "/>
   <polygon class="fil1" points="17351.06,8431.65 17694.81,8439.12 17695.29,9671.79 17971.67,9662.33 17971.47,8433.91 18311.63,8434.1 18315.88,8210.45 17351.1,8214.73 "/>
   <path class="fil0" d="M14966.01 9274.4c226,-2.99 275.27,-110.57 273.66,-344.92 -1.49,-214.74 -57.27,-333.3 -271.97,-335.63l-1.69 680.55z"/>
   <path class="fil0" d="M14688.48 9265.66l-0.16 -665.99c-207.3,-22.14 -270.68,129.04 -273.7,329.29 -2.98,198.09 58.03,370.98 273.86,336.7z"/>
   <path class="fil0" d="M20511.38 9455.13c215.72,36.11 328.27,-3.3 320.31,-231.61 -7.46,-213.85 -114.33,-242.52 -317,-221.83l-3.31 453.44z"/>
  </g>
  <g id="_1845964259296">
   <path class="fil2" d="M51646.09 9380.38c66.95,-812.39 128.27,-555.22 357.97,-1228.85 199.48,-343.14 64.14,-281.7 402.57,-545.41 138.57,-107.98 316.38,-214.05 437.69,-295.28 1606.95,-451.2 580.32,3620.84 145.1,4459.13 -456.7,879.7 -1166.21,1379.1 -1433.9,325.62 -174.17,-685.4 -150.05,-2198.96 90.57,-2715.21zm13.91 -1695.44c-103.24,229.26 -243.81,351.18 -379.99,823.54 -62.5,88.52 -229.17,851.11 -252.46,1072.54 -575.83,2449.25 820.47,5032.77 2451.3,2318.07 1199.04,-1995.96 1366.77,-5309.05 -635.2,-4874.56l-25.54 -540.25 -11.09 504.27c-194.94,134.96 -407.64,200.54 -612.43,335.97 -213.29,141.04 -321.13,266.01 -534.59,360.42z"/>
   <path class="fil3" d="M44312.44 7540.52c-12.19,662.08 -68.25,999.69 -480.24,1304.93 -1094.67,810.94 -2266.69,-627.24 -991.55,-996.11 447.73,-129.5 979.53,-171.81 1471.79,-308.82zm571.6 1942.27l115.53 -438.32c-129.46,-1039.53 332.77,-2924.47 -627.86,-3376.01 -416.1,-195.57 -1235.61,-192.89 -1687.75,-55.13 -606.34,184.75 -805.3,444.21 -953.93,1090.68l641.07 81.95c214.71,-1017.14 2035.83,-1112.63 1922.09,202.59 -500.97,293.4 -1224.38,193.56 -1795.46,375.36 -1304.8,415.39 -1180.22,2094.86 268.2,2196.38 702.12,49.22 1166.92,-263.28 1594.59,-526.2l128.89 442.73 394.63 5.97z"/>
   <path class="fil3" d="M57629.38 7776.47c-15.47,-372.58 -12.22,-794.17 144.43,-1108.08 463.13,-928.08 1985.05,-888.18 2115.97,605.88 199.61,2277.9 -2186.73,2276.06 -2260.4,502.2zm-633.95 286.52c150.1,1044.05 1020.06,1750.76 2259.6,1445.06 1013.99,-250.06 1482.57,-1288.91 1271.47,-2511.56 -377.27,-2185.17 -3986.74,-2102.86 -3531.07,1066.5z"/>
   <path class="fil3" d="M46018.7 9625.31l548.05 -62.92c-96.53,-1621.29 -94.56,-1927.58 483.19,-2067.49 353.56,228.97 749.61,961.72 929.35,1370.55l397.65 608.39 769.61 9.42c-162.78,-384.95 -1240.68,-1892.61 -1562.14,-2423.08 307.28,-524.35 1141.22,-907.88 1388.09,-1468.03 -1071.06,3.58 -833.05,45.44 -1386.91,629.72 -236.46,249.45 -677.35,791.72 -951.8,920.12l0.26 -3024.12 -645.44 2.74 30.09 5504.7z"/>
   <path class="fil3" d="M61972.03 9481.86c143.23,-1114.58 -465.91,-3276.87 934.67,-3397.98 1380.68,-119.39 787.86,1575.6 941.68,3390.89l614.16 1.83c63.43,-592.56 97.77,-2981.93 -156.22,-3399.02 -231,-379.32 -645.83,-573.57 -1195.71,-559.23 -778.4,20.26 -1119.37,547.78 -1139.53,512.6 -8.02,-13.97 -31.02,27.65 -47.84,39.77 -11.96,-535.32 65.61,-502.67 -570.1,-455.99l9 3853.73 609.89 13.4z"/>
   <path class="fil3" d="M39068.63 5699.24l-14.79 501.35c697.31,445.53 690.41,-54.11 751.91,1863.11 34.68,1081.07 232.01,1406.26 1325.9,1416.41l29.18 -485.77c-24.08,-11.37 -54.97,-43.8 -67.03,-25.24l-366.51 -98.17c-825.93,-263.77 329.07,-2225.4 -1036.3,-2879.21 280.48,-353.86 665.49,-156.73 711.7,-1507.85 24.51,-716.94 -116.83,-1255.43 299.14,-1413.29 89.6,-33.99 310.45,-49.14 454.1,-164.85l3.43 -465.94c-1891.16,6.03 -1157.98,1260.3 -1409.08,2614.24 -102.72,553.82 -213.18,455.69 -681.65,645.21z"/>
   <path class="fil3" d="M38606.38 5699.24c-424.31,-163.01 -593.2,-188.43 -686.62,-662.41 -264.49,-1342.08 467.97,-2577.65 -1405.66,-2598.07l22.13 548.11 609.49 100.4c393.76,1383.06 -319.08,1862.32 715.99,2798.26 18.53,16.77 20.99,15.85 82.86,71.14 9.38,12.37 31.96,44.43 45.6,60.33 -562,140.6 -698.4,783.92 -715.48,1469.98 -21.74,873.05 215.23,1408.39 -757.52,1426.14l21.82 564.54c1026.72,5.6 1291.61,-322.74 1318.41,-1339.96 44.33,-1682.58 -53.05,-1467.62 770.91,-1937.17l-21.93 -501.29z"/>
   <path class="fil3" d="M51034.88 9524.05l94.35 -485.57c-1048.89,105.94 -1164.44,-589.82 -784.39,-988.94 248.69,-261.17 885.42,-290.06 1315.16,-364.6 213.46,-94.41 321.3,-219.38 534.59,-360.42 204.79,-135.43 417.49,-201.01 612.43,-335.97l11.09 -504.27c-147.83,-854.91 -840.73,-1022.07 -1727.96,-959.01 -909.04,64.61 -1299.77,381.8 -1479.57,1188.87l603.85 50.05c277.66,-515.73 349.27,-732.07 1074.88,-716.78 670.4,14.13 947.19,259.25 884.37,941.14 -735.68,427.34 -1952.67,151.39 -2434.8,741.61 -243.14,297.64 -313.98,816.35 -130.98,1227.26 166.44,373.72 969.77,832.05 1426.98,566.63z"/>
   <polygon class="fil3" points="54771.55,9467.18 55402.16,9480.84 55412.86,6144.55 56638.19,6113.93 56645.91,5595.26 53510.24,5602.67 53515.17,6133.32 54762.56,6130.76 "/>
   <path class="fil3" d="M51646.09 9380.38l614.92 -351.24 99.75 447.52 650.1 4.31c-167.17,-722.12 -249.66,-1367.47 -166.54,-2170.13 -121.31,81.23 -299.12,187.3 -437.69,295.28 -338.43,263.71 -137.85,144.85 -227.73,599.68 -187.49,691.71 -586.43,319.98 -532.81,1174.58z"/>
   <path class="fil2" d="M45970.47 8528.07c-738.15,288.56 -1674.82,1248.08 -642.66,1585.61 -64.18,-712.37 18.37,-689.52 591.9,-1016.28 771.16,-315.3 -0.67,-44.83 770.69,-256.06 313.54,-102.55 456.96,-132.89 770.66,-23.79 271.73,573.94 -639.42,1120.87 -1028.69,1551.5 -582.12,643.95 -479.03,329.58 -938.17,702.34 105.76,209.74 137.6,287.02 331.04,422.87 471.73,-80.87 1374.33,-780.08 1918.33,-314.36 592.26,507.03 -357.86,2552.15 -1690.54,2676.61 -1195.91,111.71 -884.18,-943.17 -1139.12,-1245.66 -73.93,98.96 -46.66,22.38 -83.15,188.02 -130.37,592.25 985.65,2728.25 2822.93,941.6 1259.16,-1224.44 943.43,-2740.18 -545.51,-3132.68 276.17,-225.06 419.09,-407.67 653.85,-773.84 297.58,-464.13 140.26,-545.1 217.26,-968.5 -179.74,-408.83 -340.69,-437.72 -748.5,-517.48 -491.03,-9.5 -761.06,71.25 -1260.32,180.1z"/>
   <path class="fil2" d="M50053.55 12229.77c420.85,-87.58 -148.48,448.95 -83.04,811.77 65.45,362.83 -503.83,348.5 -656.87,220.08 -153.04,-128.41 -107.07,-435.15 102.67,-685.11 209.75,-249.96 216.38,-259.16 637.24,-346.74z"/>
  </g>
 </g>
 <g id="Слой_x0020_1_0">
  <metadata id="CorelCorpID_1Corel-Layer"/>
  <g id="_1845964258768">
   <rect class="fil3" transform="matrix(0.374953 0.374953 -2.07666 2.07666 31238.7 4021.12)" width="635" height="2293.06"/>
   <rect class="fil3" transform="matrix(0.374953 -0.374953 2.07666 2.07666 26476.8 4259.21)" width="635" height="2293.06"/>
  </g>
 </g>
</svg>
